<svg xmlns="http://www.w3.org/2000/svg" width="647" height="567" fill="none">
  <path fill="url(#a)" fill-rule="evenodd" stroke="url(#b)" stroke-width="2" d="M441.978 92.71c-.418 6.447 4.179 12.127 10.577 13.212 77.324 13.116 141.868 35.875 183.59 55.722 5.312 2.527 7.975 8.471 6.491 14.149l-33.9 129.689c-1.605 6.142 1.67 12.48 7.563 14.883a554.951 554.951 0 0 1 22.635 9.823c6.292 2.899 8.838 10.405 5.763 16.603L555.62 526.357c-3.075 6.198-10.601 8.734-16.941 5.94-107.62-47.412-257.315-42.61-392.177 32.068-5.437 3.011-12.294 1.784-16.186-3.027L3.766 404.942c-3.893-4.811-3.676-11.745.648-16.198 25.59-26.354 62.66-58.238 109.444-89.909 5.784-3.916 7.381-11.735 3.489-17.5L46.36 176.16c-3.346-4.956-2.712-11.588 1.65-15.71 33.02-31.207 84.613-70.102 147.185-101.518C259.621 26.586 343.348-1.649 435.317 1.198c6.937.215 12.197 6.169 11.751 13.06l-5.09 78.453Z" clip-rule="evenodd"/>
  <defs>
    <linearGradient id="a" x1="172.814" x2="-3.286" y1="397.322" y2="363.048" gradientUnits="userSpaceOnUse">
      <stop stop-color="#F7F9FC"/>
      <stop offset="0" stop-color="#F7F9FC"/>
      <stop offset="1" stop-color="#fff"/>
    </linearGradient>
    <linearGradient id="b" x1="253.807" x2="52.864" y1="30.552" y2="472.405" gradientUnits="userSpaceOnUse">
      <stop stop-color="#AFB6E5"/>
      <stop offset="1" stop-color="#D0C2FF" stop-opacity="0"/>
    </linearGradient>
  </defs>
</svg>
