<svg width="27" height="32" viewBox="0 0 27 32" fill="none" xmlns="http://www.w3.org/2000/svg">
<path fill-rule="evenodd" clip-rule="evenodd" d="M9.87094 0.0082602H22.4843C24.4502 0.0082602 26.0527 1.619 26.0527 3.57667V28.4316C26.0527 30.3975 24.4419 32 22.4843 32H3.57667C1.61074 32 0.0082602 30.3893 0.0082602 28.4316V9.16056L9.87094 0V0.0082602Z" fill="url(#paint0_linear_137_143)"/>
<path d="M15.9504 3.78317H6.41817C6.32693 3.78317 6.25297 3.98657 6.25297 4.23748V8.55756C6.25297 8.80847 6.32693 9.01188 6.41817 9.01188H15.9504C16.0417 9.01188 16.1156 8.80847 16.1156 8.55756V4.23748C16.1156 3.98657 16.0417 3.78317 15.9504 3.78317Z" fill="white"/>
<path d="M19.9979 12.8942H4.62571C4.47973 12.8942 4.36138 13.0976 4.36138 13.3485V17.6686C4.36138 17.9195 4.47973 18.1229 4.62571 18.1229H19.9979C20.1439 18.1229 20.2623 17.9195 20.2623 17.6686V13.3485C20.2623 13.0976 20.1439 12.8942 19.9979 12.8942Z" fill="white"/>
<path d="M15.6696 21.9969H4.55137C4.44644 21.9969 4.36138 22.2003 4.36138 22.4512V26.7713C4.36138 27.0222 4.44644 27.2256 4.55137 27.2256H15.6696C15.7745 27.2256 15.8596 27.0222 15.8596 26.7713V22.4512C15.8596 22.2003 15.7745 21.9969 15.6696 21.9969Z" fill="white"/>
<path fill-rule="evenodd" clip-rule="evenodd" d="M0.0082602 9.16882L9.87094 0.0082602C9.49097 2.23851 9.21012 4.48529 9.14404 6.74858C9.08622 8.71451 7.62416 9.01188 5.7491 8.96231C3.87403 8.91275 0.0082602 9.17708 0.0082602 9.17708V9.16882Z" fill="#001AC1"/>
<path fill-rule="evenodd" clip-rule="evenodd" d="M9.87094 0.0082602L8.11977 4.1301C6.96335 6.8477 7.26897 6.97161 4.77439 7.72328L0 9.16882L9.86268 0.0082602L9.87094 0.0082602Z" fill="#73D0FF"/>
<path d="M23.1368 3.78317H18.1064C18.0562 3.78317 18.0155 3.98657 18.0155 4.23748V8.55756C18.0155 8.80847 18.0562 9.01188 18.1064 9.01188H23.1368C23.187 9.01188 23.2277 8.80847 23.2277 8.55756V4.23748C23.2277 3.98657 23.187 3.78317 23.1368 3.78317Z" fill="white"/>
<path fill-rule="evenodd" clip-rule="evenodd" d="M23.9383 3.0957C23.4639 3.29928 22.7997 4.14266 22.4107 4.54981C22.1545 4.81155 21.9647 5.01513 21.6895 5.28656C21.4998 5.48044 21.1487 6.0427 20.8261 5.80035C20.4845 5.5483 19.7539 4.29777 19.0518 5.0539C18.3591 5.80035 19.4123 6.57587 19.7634 6.93455C21.2151 8.41774 20.9684 8.20448 22.9989 6.13964C23.4923 5.63555 23.9762 5.14115 24.4507 4.61767C24.6689 4.38501 25.02 4.09419 24.8397 3.55132C24.7258 3.21203 24.3558 2.91151 23.9288 3.0957H23.9383Z" fill="#2746FF"/>
<defs>
<linearGradient id="paint0_linear_137_143" x1="13.0305" y1="0.0082602" x2="13.0305" y2="32.0083" gradientUnits="userSpaceOnUse">
<stop stop-color="#293FFF"/>
<stop offset="1" stop-color="#00B3FF"/>
</linearGradient>
</defs>
</svg>
