<svg width="60" height="60" viewBox="0 0 60 60" fill="none" xmlns="http://www.w3.org/2000/svg">
<path opacity="0.5" d="M5 16.25C5 10.9467 5 8.29505 6.64752 6.64752C8.29505 5 10.9467 5 16.25 5C21.5533 5 24.2049 5 25.8525 6.64752C27.5 8.29505 27.5 10.9467 27.5 16.25C27.5 21.5533 27.5 24.2049 25.8525 25.8525C24.2049 27.5 21.5533 27.5 16.25 27.5C10.9467 27.5 8.29505 27.5 6.64752 25.8525C5 24.2049 5 21.5533 5 16.25Z" fill="#3333FF"/>
<path opacity="0.5" d="M32.5 43.75C32.5 38.4468 32.5 35.795 34.1475 34.1475C35.795 32.5 38.4468 32.5 43.75 32.5C49.0532 32.5 51.705 32.5 53.3525 34.1475C55 35.795 55 38.4468 55 43.75C55 49.0532 55 51.705 53.3525 53.3525C51.705 55 49.0532 55 43.75 55C38.4468 55 35.795 55 34.1475 53.3525C32.5 51.705 32.5 49.0532 32.5 43.75Z" fill="#3333FF"/>
<path d="M5 43.75C5 38.4468 5 35.795 6.64752 34.1475C8.29505 32.5 10.9467 32.5 16.25 32.5C21.5533 32.5 24.2049 32.5 25.8525 34.1475C27.5 35.795 27.5 38.4468 27.5 43.75C27.5 49.0532 27.5 51.705 25.8525 53.3525C24.2049 55 21.5533 55 16.25 55C10.9467 55 8.29505 55 6.64752 53.3525C5 51.705 5 49.0532 5 43.75Z" fill="#3333FF"/>
<path d="M32.5 16.25C32.5 10.9467 32.5 8.29505 34.1475 6.64752C35.795 5 38.4468 5 43.75 5C49.0532 5 51.705 5 53.3525 6.64752C55 8.29505 55 10.9467 55 16.25C55 21.5533 55 24.2049 53.3525 25.8525C51.705 27.5 49.0532 27.5 43.75 27.5C38.4468 27.5 35.795 27.5 34.1475 25.8525C32.5 24.2049 32.5 21.5533 32.5 16.25Z" fill="#3333FF"/>
</svg>
