<svg width="21" height="20" viewBox="0 0 21 20" fill="none" xmlns="http://www.w3.org/2000/svg">
<path fill-rule="evenodd" clip-rule="evenodd" d="M5.83358 1.81875C6.63765 1.75455 7.40097 1.43829 8.01482 0.915C8.70815 0.324489 9.58911 0.000175476 10.4998 0.000175476C11.4105 0.000175476 12.2915 0.324489 12.9848 0.915C13.5987 1.43829 14.362 1.75455 15.1661 1.81875C16.0741 1.89132 16.9266 2.28495 17.5707 2.92908C18.2149 3.57321 18.6085 4.42571 18.6811 5.33375C18.7448 6.1375 19.0611 6.90125 19.5848 7.515C20.1753 8.20833 20.4996 9.08928 20.4996 10C20.4996 10.9107 20.1753 11.7917 19.5848 12.485C19.0615 13.0989 18.7453 13.8622 18.6811 14.6662C18.6085 15.5743 18.2149 16.4268 17.5707 17.0709C16.9266 17.715 16.0741 18.1087 15.1661 18.1813C14.362 18.2454 13.5987 18.5617 12.9848 19.085C12.2915 19.6755 11.4105 19.9998 10.4998 19.9998C9.58911 19.9998 8.70815 19.6755 8.01482 19.085C7.40097 18.5617 6.63765 18.2454 5.83358 18.1813C4.92554 18.1087 4.07303 17.715 3.42891 17.0709C2.78478 16.4268 2.39114 15.5743 2.31857 14.6662C2.25438 13.8622 1.93811 13.0989 1.41482 12.485C0.824314 11.7917 0.5 10.9107 0.5 10C0.5 9.08928 0.824314 8.20833 1.41482 7.515C1.93811 6.90114 2.25438 6.13782 2.31857 5.33375C2.39114 4.42571 2.78478 3.57321 3.42891 2.92908C4.07303 2.28495 4.92554 1.89132 5.83358 1.81875ZM15.1336 8.38375C15.3613 8.148 15.4873 7.83225 15.4844 7.5045C15.4816 7.17675 15.3501 6.86324 15.1183 6.63148C14.8866 6.39972 14.5731 6.26825 14.2453 6.26541C13.9176 6.26256 13.6018 6.38855 13.3661 6.61625L9.24982 10.7325L7.63357 9.11625C7.39782 8.88855 7.08207 8.76256 6.75432 8.76541C6.42658 8.76826 6.11306 8.89972 5.8813 9.13148C5.64954 9.36324 5.51808 9.67675 5.51523 10.0045C5.51238 10.3322 5.63838 10.648 5.86608 10.8837L8.36608 13.3837C8.60048 13.6181 8.91837 13.7497 9.24982 13.7497C9.58128 13.7497 9.89916 13.6181 10.1336 13.3837L15.1336 8.38375Z" fill="#1464FF"/>
</svg>
