<svg width="60" height="60" viewBox="0 0 60 60" fill="none" xmlns="http://www.w3.org/2000/svg">
<path opacity="0.5" d="M52.5 39.9957V24.9956C52.5 17.9246 52.5 14.389 50.3032 12.1923C48.3822 10.2714 45.4375 10.0303 40 10H20C14.5624 10.0303 11.6177 10.2714 9.6967 12.1923C7.5 14.389 7.5 17.9246 7.5 24.9956V39.9957C7.5 47.0667 7.5 50.6022 9.6967 52.799C11.8934 54.9958 15.4289 54.9958 22.5 54.9958H37.5C44.571 54.9958 48.1065 54.9958 50.3032 52.799C52.5 50.6022 52.5 47.0667 52.5 39.9957Z" fill="#3333FF"/>
<path d="M20 8.75C20 6.67893 21.6789 5 23.75 5H36.25C38.321 5 40 6.67893 40 8.75V11.25C40 13.3211 38.321 15 36.25 15H23.75C21.6789 15 20 13.3211 20 11.25V8.75Z" fill="#3333FF"/>
<path fill-rule="evenodd" clip-rule="evenodd" d="M15.625 26.25C15.625 25.2145 16.4645 24.375 17.5 24.375H42.5C43.5355 24.375 44.375 25.2145 44.375 26.25C44.375 27.2855 43.5355 28.125 42.5 28.125H17.5C16.4645 28.125 15.625 27.2855 15.625 26.25ZM18.125 35C18.125 33.9645 18.9645 33.125 20 33.125H40C41.0355 33.125 41.875 33.9645 41.875 35C41.875 36.0355 41.0355 36.875 40 36.875H20C18.9645 36.875 18.125 36.0355 18.125 35ZM20.625 43.75C20.625 42.7145 21.4645 41.875 22.5 41.875H37.5C38.5355 41.875 39.375 42.7145 39.375 43.75C39.375 44.7855 38.5355 45.625 37.5 45.625H22.5C21.4645 45.625 20.625 44.7855 20.625 43.75Z" fill="#3333FF"/>
</svg>
