<svg width="60" height="60" viewBox="0 0 60 60" fill="none" xmlns="http://www.w3.org/2000/svg">
<path d="M50.779 31.6182L52.0732 26.7885C53.5837 21.1508 54.339 18.332 53.7702 15.8926C53.3212 13.9664 52.311 12.2167 50.8675 10.8647C49.0392 9.15237 46.2202 8.39707 40.5828 6.88645C34.945 5.37582 32.126 4.62052 29.6867 5.18932C27.7605 5.63842 26.0107 6.64862 24.6588 8.09217C23.1927 9.65745 22.4282 11.9489 21.2905 16.114C21.0995 16.8135 20.8979 17.5658 20.6807 18.3764L19.3864 23.2066C17.8758 28.8442 17.1205 31.663 17.6893 34.1025C18.1384 36.0287 19.1486 37.7785 20.5922 39.1305C22.4204 40.8427 25.2392 41.598 30.877 43.1087C35.9585 44.4702 38.7498 45.2182 41.0375 44.936C41.288 44.9052 41.5322 44.862 41.773 44.8057C43.699 44.3567 45.4487 43.3465 46.8007 41.903C48.513 40.0747 49.2685 37.256 50.779 31.6182Z" fill="#3333FF"/>
<path opacity="0.5" d="M41.0372 44.9363C40.516 46.532 39.5995 47.9757 38.3675 49.1297C36.5392 50.842 33.7202 51.5973 28.0827 53.108C22.4449 54.6185 19.6261 55.374 17.1866 54.805C15.2605 54.356 13.5108 53.3458 12.1588 51.9023C10.4465 50.074 9.69117 47.2552 8.18055 41.6175L6.88645 36.788C5.37582 31.1503 4.62052 28.3313 5.18932 25.892C5.63842 23.9658 6.64862 22.216 8.09217 20.864C9.92037 19.1517 12.7392 18.3964 18.3769 16.8858C19.4435 16.6 20.4092 16.3412 21.2905 16.1134C21.2904 16.1136 21.2906 16.1131 21.2905 16.1134C21.0995 16.8128 20.8977 17.5664 20.6805 18.377L19.3864 23.2066C17.8758 28.8442 17.1205 31.6632 17.6893 34.1027C18.1384 36.0287 19.1486 37.7785 20.5922 39.1305C22.4204 40.8427 25.2392 41.5982 30.877 43.1087C35.9582 44.4702 38.7497 45.2183 41.0372 44.9363Z" fill="#3333FF"/>
</svg>
