<svg width="60" height="60" viewBox="0 0 60 60" fill="none" xmlns="http://www.w3.org/2000/svg">
<path opacity="0.5" d="M5 30C5 18.2149 5 12.3223 8.66117 8.66117C12.3223 5 18.2149 5 30 5C41.785 5 47.6777 5 51.3387 8.66117C55 12.3223 55 18.2149 55 30C55 41.785 55 47.6777 51.3387 51.3387C47.6777 55 41.785 55 30 55C18.2149 55 12.3223 55 8.66117 51.3387C5 47.6777 5 41.785 5 30Z" fill="#3333FF"/>
<path d="M30.9937 35.0962L37.1475 41.2498C37.7845 41.887 38.1033 42.2055 38.4585 42.3527C38.9325 42.549 39.4648 42.549 39.9388 42.3527C40.294 42.2055 40.6128 41.887 41.2498 41.2498C41.887 40.6128 42.2055 40.294 42.3527 39.9388C42.549 39.4648 42.549 38.9325 42.3527 38.4585C42.2055 38.1033 41.887 37.7845 41.2498 37.1475L35.0962 30.9937L36.9755 29.1147C38.8993 27.191 39.861 26.229 39.634 25.1953C39.407 24.1613 38.1305 23.691 35.5775 22.7505L27.0632 19.6136C21.9704 17.7373 19.424 16.7991 18.1116 18.1116C16.7991 19.424 17.7373 21.9704 19.6136 27.0632L22.7505 35.5775C23.691 38.1305 24.1613 39.407 25.1953 39.634C26.229 39.861 27.191 38.8993 29.1147 36.9755L30.9937 35.0962Z" fill="#3333FF"/>
</svg>
