<svg width="370" height="185" viewBox="0 0 370 185" fill="none" xmlns="http://www.w3.org/2000/svg">
<mask id="path-1-inside-1_190_4215" fill="white">
<path fill-rule="evenodd" clip-rule="evenodd" d="M0.000488281 185C0.000545321 82.8274 82.8278 0.000114829 185 0.000105897C287.173 9.69649e-05 370 82.8274 370.001 185L311.001 185C311 115.412 254.588 59.0001 185 59.0001C115.413 59.0001 59.0005 115.412 59.0005 185L0.000488281 185Z"/>
</mask>
<path d="M0.000488281 185L0.000490904 215L-29.9995 215L-29.9995 185L0.000488281 185ZM370.001 185L400.001 185L400.001 215L370.001 215L370.001 185ZM311.001 185L311.001 215L281.001 215L281.001 185L311.001 185ZM59.0005 185L89.0005 185L89.0005 215L59.0005 215L59.0005 185ZM-29.9995 185C-29.9994 66.2588 66.2593 -29.9999 185 -29.9999L185 30.0001C99.3964 30.0001 30.0005 99.3959 30.0005 185L-29.9995 185ZM185 -29.9999C303.742 -29.9999 400 66.2588 400.001 185L340.001 185C340 99.3959 270.605 30.0001 185 30.0001L185 -29.9999ZM370.001 215L311.001 215L311.001 155L370.001 155L370.001 215ZM185 29.0001C271.157 29.0001 341 98.8436 341.001 185L281.001 185C281 131.981 238.02 89.0001 185 89.0001L185 29.0001ZM29.0005 185C29.0006 98.8436 98.8441 29.0001 185 29.0001L185 89.0001C131.981 89.0001 89.0005 131.981 89.0005 185L29.0005 185ZM59.0005 215L0.000490904 215L0.000485659 155L59.0005 155L59.0005 215Z" fill="url(#paint0_linear_190_4215)" mask="url(#path-1-inside-1_190_4215)"/>
<defs>
<linearGradient id="paint0_linear_190_4215" x1="87.8706" y1="185" x2="254" y2="-29.9999" gradientUnits="userSpaceOnUse">
<stop stop-color="#3333FF" stop-opacity="0.1"/>
<stop offset="1" stop-color="white" stop-opacity="0"/>
</linearGradient>
</defs>
</svg>
