<svg width="104" height="45" viewBox="0 0 104 45" fill="none" xmlns="http://www.w3.org/2000/svg">
<path d="M0.752291 29.559C0.476758 29.5774 0.268268 29.8156 0.286614 30.0911L0.585579 34.5812C0.603925 34.8567 0.84216 35.0652 1.11769 35.0469C1.39322 35.0285 1.60172 34.7903 1.58337 34.5148L1.31762 30.5236L5.30879 30.2578C5.58432 30.2395 5.79281 30.0013 5.77446 29.7257C5.75612 29.4502 5.51788 29.2417 5.24235 29.2601L0.752291 29.559ZM103.024 1.16027C103.113 0.8987 102.972 0.614901 102.711 0.526389C102.449 0.437878 102.165 0.578172 102.077 0.839744L103.024 1.16027ZM0.456226 30.4342C15.7116 43.7848 37.6951 47.2817 57.6686 42.0534C77.6491 36.8234 95.6863 22.845 103.024 1.16027L102.077 0.839744C94.8641 22.155 77.1261 35.9266 57.4154 41.086C37.6976 46.2473 16.074 42.7731 1.11479 29.6817L0.456226 30.4342Z" fill="#0E0B3D"/>
</svg>
